# xmcd CD database file
#
# Track frame offsets:
#	150
#	14052
#	26302
#	37507
#	48895
#	60225
#	72660
#	85207
#	99065
#	110297
#	121770
#	133765
#	146727
#	158737
#
# Disc length: 2301 seconds
#
# Revision: 0
# Processed by: cddbd v1.5PL3 Copyright (c) Steve Scherf et al.
# Submitted via: CDex 1.51
#
DISCID=a808fb0e
DTITLE=Tito Rodriguez - The best of Tito Rodriguez and his Orchestra, vol 3
DYEAR=1994
DGENRE=Salsa
TTITLE0=El Jamaiquino
TTITLE1=Estas Como Mango
TTITLE2=Chika Ni Lambo
TTITLE3=De Noche
TTITLE4=Batiri Cha Cha
TTITLE5=El Guapeton
TTITLE6=Ay No No
TTITLE7=Desarrecuestate Nene
TTITLE8=Nosotros
TTITLE9=Manengue
TTITLE10=Cogele Bien El Compas
TTITLE11=Los Marcianos
TTITLE12=Abbariba Cumbiaremos
TTITLE13=Para Que Confiar
EXTD=YEAR: 1994
EXTT0=
EXTT1=
EXTT2=
EXTT3=
EXTT4=
EXTT5=
EXTT6=
EXTT7=
EXTT8=
EXTT9=
EXTT10=
EXTT11=
EXTT12=
EXTT13=
PLAYORDER=
